<?xml version="1.0" ?><svg id="Layer_1" style="enable-background:new 0 0 512 512;" version="1.1" viewBox="0 0 512 512" xml:space="preserve" xmlns="http://www.w3.org/2000/svg" xmlns:xlink="http://www.w3.org/1999/xlink"><style type="text/css">
	.st0{fill-rule:evenodd;clip-rule:evenodd;fill:#DFDFE0;}
	.st1{fill-rule:evenodd;clip-rule:evenodd;fill:#F8991D;}
	.st2{fill-rule:evenodd;clip-rule:evenodd;fill:#010101;}
</style><g><path class="st0" d="M489.2,94.5H21.9c-9.1,0-14.8,1.4-17.9,4.3c-2.7,3.3-4,8.7-4,16.7v29.9v24.1v172.3V367v28.8   c0,14.3,7.4,21.7,21.9,21.7h467.3c15.2,0,22.8-7.4,22.8-21.7V367v-25.2V169.4v-24.1v-29.9C512,101.3,504.4,94.5,489.2,94.5z"/><g><g><path class="st1" d="M300.4,287.4c-21.4,15.8-52.5,24.2-79.3,24.2c-37.5,0-71.3-13.9-96.8-36.9c-2-1.8-0.2-4.3,2.2-2.9     c27.6,16,61.7,25.7,96.9,25.7c23.8,0,49.9-4.9,73.9-15.1C300.9,280.8,304,284.7,300.4,287.4z"/><path class="st1" d="M309.3,277.2c-2.7-3.5-18.1-1.7-25-0.8c-2.1,0.2-2.4-1.6-0.5-2.9c12.3-8.6,32.4-6.1,34.7-3.2     c2.4,2.9-0.6,23.1-12.1,32.7c-1.8,1.5-3.5,0.7-2.7-1.3C306.3,295.1,312.1,280.7,309.3,277.2z"/></g><path class="st2" d="M284.8,212.6v-8.4c0-1.3,1-2.1,2.1-2.1l37.5,0c1.2,0,2.2,0.9,2.2,2.1l0,7.2c0,1.2-1,2.8-2.8,5.3l-19.4,27.8    c7.2-0.2,14.9,0.9,21.4,4.6c1.5,0.8,1.9,2.1,2,3.3v8.9c0,1.2-1.3,2.7-2.8,1.9c-11.6-6.1-26.9-6.7-39.7,0.1    c-1.3,0.7-2.7-0.7-2.7-1.9v-8.5c0-1.4,0-3.7,1.4-5.8l22.5-32.3l-19.6,0C285.8,214.7,284.8,213.8,284.8,212.6z"/><path class="st2" d="M147.9,264.9h-11.4c-1.1-0.1-2-0.9-2-1.9l0-58.6c0-1.2,1-2.1,2.2-2.1l10.6,0c1.1,0.1,2,0.9,2.1,2v7.7h0.2    c2.8-7.4,8-10.9,15-10.9c7.1,0,11.6,3.5,14.8,10.9c2.8-7.4,9.1-10.9,15.8-10.9c4.8,0,10,2,13.2,6.4c3.6,4.9,2.9,12.1,2.9,18.4    l0,37c0,1.2-1,2.1-2.2,2.1h-11.4c-1.1-0.1-2-1-2-2.1l0-31.1c0-2.5,0.2-8.6-0.3-11c-0.9-3.9-3.4-5.1-6.7-5.1    c-2.8,0-5.6,1.9-6.8,4.8c-1.2,3-1.1,7.9-1.1,11.2v31.1c0,1.2-1,2.1-2.2,2.1h-11.4c-1.1-0.1-2-1-2-2.1l0-31.1    c0-6.5,1.1-16.2-7-16.2c-8.2,0-7.9,9.4-7.9,16.2l0,31.1C150.1,263.9,149.1,264.9,147.9,264.9z"/><path class="st2" d="M358.9,201c16.9,0,26.1,14.6,26.1,33c0,17.9-10.1,32.1-26.1,32.1c-16.6,0-25.7-14.6-25.7-32.7    C333.2,215.2,342.4,201,358.9,201z M359,212.9c-8.4,0-9,11.5-9,18.6c0,7.2-0.1,22.4,8.8,22.4c8.8,0,9.3-12.3,9.3-19.9    c0-4.9-0.2-10.9-1.7-15.5C365.2,214.5,362.6,212.9,359,212.9z"/><path class="st2" d="M407,264.9h-11.4c-1.1-0.1-2-1-2-2.1l0-58.6c0.1-1.1,1-1.9,2.2-1.9l10.6,0c1,0.1,1.8,0.7,2,1.6v9h0.2    c3.2-8,7.7-11.8,15.6-11.8c5.1,0,10.1,1.9,13.3,6.9c3,4.7,3,12.6,3,18.2V263c-0.1,1-1.1,1.8-2.2,1.8h-11.4c-1.1-0.1-1.9-0.8-2-1.8    v-31.8c0-6.4,0.7-15.8-7.1-15.8c-2.8,0-5.3,1.8-6.6,4.7c-1.6,3.6-1.8,7.2-1.8,11.1v31.6C409.2,263.9,408.2,264.9,407,264.9z"/><path class="st2" d="M254.9,236.9c0,4.4,0.1,8.2-2.1,12.1c-1.8,3.2-4.7,5.2-7.9,5.2c-4.4,0-6.9-3.3-6.9-8.3    c0-9.7,8.7-11.5,17-11.5V236.9z M266.4,264.7c-0.8,0.7-1.8,0.7-2.7,0.3c-3.8-3.2-4.5-4.6-6.5-7.6c-6.3,6.4-10.7,8.3-18.8,8.3    c-9.6,0-17.1-5.9-17.1-17.8c0-9.3,5-15.6,12.2-18.7c6.2-2.7,14.8-3.2,21.5-4v-1.5c0-2.7,0.2-5.9-1.4-8.3c-1.4-2.1-4.1-3-6.4-3    c-4.4,0-8.2,2.2-9.2,6.9c-0.2,1-0.9,2-2,2.1l-11.1-1.2c-0.9-0.2-2-1-1.7-2.4c2.5-13.4,14.7-17.5,25.5-17.5    c5.6,0,12.8,1.5,17.2,5.7c5.6,5.2,5,12.1,5,19.6v17.8c0,5.4,2.2,7.7,4.3,10.6c0.7,1,0.9,2.3,0,3    C272.8,259.1,268.7,262.7,266.4,264.7L266.4,264.7z"/><path class="st2" d="M105.2,236.9c0,4.4,0.1,8.2-2.1,12.1c-1.8,3.2-4.7,5.2-7.9,5.2c-4.4,0-6.9-3.3-6.9-8.3    c0-9.7,8.7-11.5,17-11.5V236.9z M116.7,264.7c-0.8,0.7-1.8,0.7-2.7,0.3c-3.8-3.2-4.5-4.6-6.5-7.6c-6.3,6.4-10.7,8.3-18.8,8.3    c-9.6,0-17.1-5.9-17.1-17.8c0-9.3,5-15.6,12.2-18.7c6.2-2.7,14.8-3.2,21.5-4v-1.5c0-2.7,0.2-5.9-1.4-8.3c-1.4-2.1-4.1-3-6.4-3    c-4.4,0-8.2,2.2-9.2,6.9c-0.2,1-0.9,2-2,2.1l-11.1-1.2c-0.9-0.2-2-1-1.7-2.4c2.5-13.4,14.7-17.5,25.5-17.5    c5.6,0,12.8,1.5,17.2,5.7c5.6,5.2,5,12.1,5,19.6v17.8c0,5.4,2.2,7.7,4.3,10.6c0.7,1,0.9,2.3,0,3    C123.2,259.1,119,262.7,116.7,264.7L116.7,264.7z"/></g></g></svg>