<?xml version="1.0" encoding="UTF-8" standalone="no"?>
<!DOCTYPE svg PUBLIC "-//W3C//DTD SVG 1.1//EN" "http://www.w3.org/Graphics/SVG/1.1/DTD/svg11.dtd">
<svg version="1.1" xmlns="http://www.w3.org/2000/svg" xmlns:xlink="http://www.w3.org/1999/xlink" preserveAspectRatio="xMidYMid meet" viewBox="0 0 640 640" width="640" height="640"><defs><path d="M640 320C640 496.61 496.61 640 320 640C143.39 640 0 496.61 0 320C0 143.39 143.39 0 320 0C496.61 0 640 143.39 640 320Z" id="bbRJ4swlU"></path><path d="M595.33 207.48C595.33 269.58 543.65 320 480 320C416.35 320 364.67 269.58 364.67 207.48C364.67 145.38 416.35 94.96 480 94.96C543.65 94.96 595.33 145.38 595.33 207.48Z" id="cjsXqQte"></path><path d="M292.92 217.48C292.92 279.58 241.24 330 177.59 330C113.94 330 62.26 279.58 62.26 217.48C62.26 155.38 113.94 104.96 177.59 104.96C241.24 104.96 292.92 155.38 292.92 217.48Z" id="f4xbleK9MQ"></path><path d="M598.47 484.59C598.47 669.26 465.58 420.12 328.47 420.12C191.35 420.12 50 669.26 50 484.59C50 299.93 172.88 150 324.23 150C475.59 150 598.47 299.93 598.47 484.59Z" id="gjTBOoQd0"></path><path d="M264.89 368.14C264.89 383.67 252.15 396.28 236.46 396.28C220.77 396.28 208.03 383.67 208.03 368.14C208.03 352.61 220.77 340 236.46 340C252.15 340 264.89 352.61 264.89 368.14Z" id="j1dpbwuU6g"></path><path d="" id="k85bpogf2"></path><path d="M450 361.86C450 377.39 437.26 390 421.57 390C405.88 390 393.14 377.39 393.14 361.86C393.14 346.33 405.88 333.72 421.57 333.72C437.26 333.72 450 346.33 450 361.86Z" id="e7xGMQmMV"></path><path d="M500 550C500.03 525.41 490.92 504.58 472.66 487.5C434.74 452.03 369.18 433.21 330 433.21C289.66 433.21 240.6 451.3 196.04 480.5C166.33 499.96 151.57 523.13 151.75 550" id="dCwWqZbQ6"></path><path d="M417.85 512.7C417.85 533.29 378 550 328.92 550C279.85 550 240 533.29 240 512.7C240 492.11 279.85 475.4 328.92 475.4C378 475.4 417.85 492.11 417.85 512.7Z" id="e16umkwtM"></path><path d="M385.62 167.08C366.06 162.36 346.67 160 327.45 160C308.22 160 287.62 162.12 265.62 166.35" id="a2tLcvwU7"></path></defs><g><g><g><use xlink:href="#bbRJ4swlU" opacity="1" fill="#c9bcab" fill-opacity="1"></use></g><g><use xlink:href="#cjsXqQte" opacity="1" fill="#b76805" fill-opacity="1"></use><g><use xlink:href="#cjsXqQte" opacity="1" fill-opacity="0" stroke="#302106" stroke-width="20" stroke-opacity="1"></use></g></g><g><use xlink:href="#f4xbleK9MQ" opacity="1" fill="#b76805" fill-opacity="1"></use><g><use xlink:href="#f4xbleK9MQ" opacity="1" fill-opacity="0" stroke="#302106" stroke-width="20" stroke-opacity="1"></use></g></g><g><use xlink:href="#gjTBOoQd0" opacity="1" fill="#b76805" fill-opacity="1"></use></g><g><use xlink:href="#j1dpbwuU6g" opacity="1" fill="#ffffff" fill-opacity="1"></use><g><use xlink:href="#j1dpbwuU6g" opacity="1" fill-opacity="0" stroke="#302106" stroke-width="40" stroke-opacity="1"></use></g></g><g><g><use xlink:href="#k85bpogf2" opacity="1" fill-opacity="0" stroke="#000000" stroke-width="1" stroke-opacity="1"></use></g></g><g><use xlink:href="#e7xGMQmMV" opacity="1" fill="#ffffff" fill-opacity="1"></use><g><use xlink:href="#e7xGMQmMV" opacity="1" fill-opacity="0" stroke="#302106" stroke-width="40" stroke-opacity="1"></use></g></g><g><g><use xlink:href="#dCwWqZbQ6" opacity="1" fill-opacity="0" stroke="#302106" stroke-width="30" stroke-opacity="1"></use></g></g><g><use xlink:href="#e16umkwtM" opacity="1" fill="#302106" fill-opacity="1"></use><g><use xlink:href="#e16umkwtM" opacity="1" fill-opacity="0" stroke="#302106" stroke-width="3" stroke-opacity="1"></use></g></g><g><g><use xlink:href="#a2tLcvwU7" opacity="1" fill-opacity="0" stroke="#302106" stroke-width="20" stroke-opacity="1"></use></g></g></g></g></svg>