<?xml version="1.0" encoding="UTF-8" standalone="no"?>
<!DOCTYPE svg PUBLIC "-//W3C//DTD SVG 1.1//EN" "http://www.w3.org/Graphics/SVG/1.1/DTD/svg11.dtd">
<svg version="1.1" xmlns="http://www.w3.org/2000/svg" xmlns:xlink="http://www.w3.org/1999/xlink" preserveAspectRatio="xMidYMid meet" viewBox="0 0 640 640" width="640" height="640"><defs><path d="M600 352.13C600 490.11 476.78 602.13 325 602.13C173.22 602.13 50 490.11 50 352.13C50 214.15 173.22 102.13 325 102.13C476.78 102.13 600 214.15 600 352.13Z" id="a34iKkLZJ"></path><path d="M483.4 308.87C483.4 331.57 465.45 350 443.33 350C421.22 350 403.26 331.57 403.26 308.87C403.26 286.16 421.22 267.73 443.33 267.73C465.45 267.73 483.4 286.16 483.4 308.87Z" id="dMFL9NGQ"></path><path d="M497.3 455.11C497.3 499.34 420.56 535.25 326.03 535.25C231.5 535.25 154.75 499.34 154.75 455.11C154.75 410.87 231.5 374.96 326.03 374.96C420.56 374.96 497.3 410.87 497.3 455.11Z" id="hdfwN6oJK"></path><path d="M365.46 423.19C365.46 441.51 347.14 456.38 324.57 456.38C302.01 456.38 283.69 441.51 283.69 423.19C283.69 404.87 302.01 390 324.57 390C347.14 390 365.46 404.87 365.46 423.19Z" id="h80VCcEJ6"></path><path d="M464.04 310C464.04 321.04 455.08 330 444.04 330C433 330 424.04 321.04 424.04 310C424.04 298.96 433 290 444.04 290C455.08 290 464.04 298.96 464.04 310Z" id="b1jadtNQHw"></path><path d="M250 307.73C250 330.12 232.04 348.3 209.93 348.3C187.81 348.3 169.86 330.12 169.86 307.73C169.86 285.34 187.81 267.16 209.93 267.16C232.04 267.16 250 285.34 250 307.73Z" id="cdkoN21IO"></path><path d="M230 307.3C230 318.34 221.04 327.3 210 327.3C198.96 327.3 190 318.34 190 307.3C190 296.27 198.96 287.3 210 287.3C221.04 287.3 230 296.27 230 307.3Z" id="d3S7kTp3F"></path><path d="M175 105.53C175 146.63 141.39 180 100 180C58.61 180 25 146.63 25 105.53C25 64.43 58.61 31.06 100 31.06C141.39 31.06 175 64.43 175 105.53Z" id="a3ArHrvIfA"></path><path d="M621.88 104.47C621.88 145.57 588.27 178.94 546.88 178.94C505.49 178.94 471.88 145.57 471.88 104.47C471.88 63.37 505.49 30 546.88 30C588.27 30 621.88 63.37 621.88 104.47Z" id="a6nugtkaG"></path></defs><g><g><g><use xlink:href="#a34iKkLZJ" opacity="1" fill="#ffffff" fill-opacity="1"></use><g><use xlink:href="#a34iKkLZJ" opacity="1" fill-opacity="0" stroke="#000000" stroke-width="20" stroke-opacity="1"></use></g></g><g><use xlink:href="#dMFL9NGQ" opacity="1" fill="#ffffff" fill-opacity="1"></use><g><use xlink:href="#dMFL9NGQ" opacity="1" fill-opacity="0" stroke="#000000" stroke-width="20" stroke-opacity="1"></use></g></g><g><use xlink:href="#hdfwN6oJK" opacity="1" fill="#ffffff" fill-opacity="1"></use><g><use xlink:href="#hdfwN6oJK" opacity="1" fill-opacity="0" stroke="#000000" stroke-width="20" stroke-opacity="1"></use></g></g><g><use xlink:href="#h80VCcEJ6" opacity="1" fill="#111110" fill-opacity="1"></use></g><g><use xlink:href="#b1jadtNQHw" opacity="1" fill="#111110" fill-opacity="1"></use></g><g><use xlink:href="#cdkoN21IO" opacity="1" fill="#ffffff" fill-opacity="1"></use><g><use xlink:href="#cdkoN21IO" opacity="1" fill-opacity="0" stroke="#000000" stroke-width="20" stroke-opacity="1"></use></g></g><g><use xlink:href="#d3S7kTp3F" opacity="1" fill="#111110" fill-opacity="1"></use></g><g><use xlink:href="#a3ArHrvIfA" opacity="1" fill="#080808" fill-opacity="1"></use></g><g><use xlink:href="#a6nugtkaG" opacity="1" fill="#080808" fill-opacity="1"></use></g></g></g></svg>